<svg xmlns="http://www.w3.org/2000/svg" viewBox="0 0 435.92 153.17"><defs><style>.cls-1{fill:#fff;}</style></defs><title>Asset 3</title><g id="Layer_2" data-name="Layer 2"><g id="Layer_1-2" data-name="Layer 1"><path class="cls-1" d="M117,84.09a44.85,44.85,0,1,1-44.73-48,38.2,38.2,0,0,1,14.45,2.69L99.61,14.51h0A62.53,62.53,0,0,0,72.22,8.74a72.22,72.22,0,1,0,72.14,75.4C131.36,84.14,117,84.09,117,84.09Z"/><path class="cls-1" d="M155.65,51.37H144.38V85.66h-8V51.37H125.14V43.7h30.51Z"/><path class="cls-1" d="M174.52,71.27h-5.81V85.66h-8v-42h15.52c9.35,0,14.57,6.12,14.57,13.79,0,5.63-2.76,10.43-8,12.59l9,15.58h-9Zm-5.81-7.61h7.37c4,0,6.48-2.58,6.48-6.17s-2.52-6.12-6.48-6.12h-7.37Z"/><path class="cls-1" d="M227.87,43.7V69.18c0,10.48-6.35,17-16.07,17s-16.06-6.48-16.06-17V43.7h8V69c0,5.63,3.06,9.11,8.09,9.11s8.1-3.48,8.1-9.11V43.7Z"/><path class="cls-1" d="M262,78.05v7.61H234.16v-42h27.51v7.67H242.13V60.9h17.68v7.62H242.13v9.53Z"/><path class="cls-1" d="M312.32,72.71l7.19,3.6a19.59,19.59,0,0,1-17.38,9.83c-12.05,0-20.32-9.35-20.32-21.4s8.27-21.4,20.32-21.4a19.47,19.47,0,0,1,17.38,9.83l-7.19,3.6a11.49,11.49,0,0,0-10.19-5.46c-7.61,0-12.17,5.76-12.17,13.43s4.56,13.37,12.17,13.37A11.45,11.45,0,0,0,312.32,72.71Z"/><path class="cls-1" d="M362.61,64.74c0,12.05-8.27,21.4-20.32,21.4s-20.38-9.35-20.38-21.4,8.33-21.4,20.38-21.4S362.61,52.69,362.61,64.74Zm-8.15,0c0-7.67-4.56-13.43-12.17-13.43s-12.23,5.76-12.23,13.43,4.56,13.37,12.23,13.37S354.46,72.35,354.46,64.74Z"/><path class="cls-1" d="M403.19,64.68c0,12.29-8.1,21-22,21H367.7v-42h13.49C395.09,43.7,403.19,52.39,403.19,64.68Zm-8,0c0-8-5.39-13.31-14.2-13.31h-5.34V78.05H381C389.82,78.05,395.21,72.71,395.21,64.68Z"/><path class="cls-1" d="M435.85,78.05v7.61H408v-42h27.51v7.67H416V60.9h17.68v7.62H416v9.53Z"/><path class="cls-1" d="M299.33,113.47a11.2,11.2,0,0,1,8.47-4.17c3.45,0,5.61,1.49,6.28,4.31,2.44-2.68,4.74-4.21,8.57-4.21,4.26,0,7.23,2.49,7.23,6.08a24.42,24.42,0,0,1-.72,5l-3,14.17h-6.85l2.92-13.88a14.31,14.31,0,0,0,.48-3.31c0-1.63-1.24-2.68-3.11-2.68-4.21,0-5.55,3.83-6.27,7.18l-2.68,12.69h-6.85l3-13.93a16.67,16.67,0,0,0,.52-3.4,2.68,2.68,0,0,0-2.92-2.68c-3.87,0-5.69,3.49-6.41,6.8l-2.83,13.21h-6.8L293.63,110h6.46Z"/><path class="cls-1" d="M346.49,135.5c-7.19,0-11.3-3.88-11.3-11.07,0-8.81,5.89-15.13,14-15.13,6.8,0,11.06,4.12,11.06,10.78a20.61,20.61,0,0,1-.39,3.92H341.7a10.08,10.08,0,0,0-.05,1.15c0,3.5,2,5.56,5.27,5.56a5.26,5.26,0,0,0,5.27-3.55h6.65C357.17,133,352.38,135.5,346.49,135.5Zm7.37-15.61v-.72c0-3.16-1.82-5.08-4.83-5.08-3.21,0-5.7,2.16-6.66,5.8Z"/><path class="cls-1" d="M387.81,134.68h-6.47l.72-3.16a8.33,8.33,0,0,1-7.61,3.83c-6.08,0-9.34-3.88-9.34-10,0-7.81,4.55-16,13.12-16q5.38,0,7.33,4l2.73-12.74H395ZM372,125c0,3.3,1.72,5.17,4.79,5.17,5.26,0,7.37-6.27,7.37-10.63a4.57,4.57,0,0,0-4.93-4.88C373.92,114.62,372,120.56,372,125Z"/><path class="cls-1" d="M402.36,134.68h-6.8L400.78,110h6.8Zm6-28.49h-6.75l1.15-5.6h6.8Z"/><path class="cls-1" d="M425.72,109.3c6.37,0,10.2,2.3,10.2,6.13a21.43,21.43,0,0,1-.62,4.5l-2,8.91a17.16,17.16,0,0,0-.58,4.07,5.5,5.5,0,0,0,.19,1.77h-6.7a5.8,5.8,0,0,1-.05-.91,8.4,8.4,0,0,1,.1-1.53,10.18,10.18,0,0,1-7.81,3.21c-4.88,0-7.95-2.64-7.95-6.8,0-6.27,5.7-8.05,11.88-8.52,4.31-.34,7-.24,7-3.6,0-1.72-1.48-2.68-4.21-2.68s-4.27,1.06-5,3.59H413.8C415,111,419.93,109.3,425.72,109.3ZM423.66,124c-3.11.33-6.27.71-6.27,4,0,2,1.44,3.16,3.78,3.16,3.55,0,5.61-2.35,6.42-5.79l.57-2.49C426.92,123.76,425.15,123.81,423.66,124Z"/><path class="cls-1" d="M110.58,12.08,76.08,72.36l-9-13.54-24-.15S67.54,102.21,71.48,109c3.6,6.21,6.57,6.55,10.18,0S141.85,2.5,141.85,2.5,122.07-7.36,110.58,12.08Z"/></g></g></svg>